<svg xmlns="http://www.w3.org/2000/svg" xmlns:xlink="http://www.w3.org/1999/xlink" width="58.707" height="56.707" viewBox="0 0 58.707 56.707">
  <defs>
    <clipPath id="clip-path">
      <rect id="사각형_69" data-name="사각형 69" width="58.707" height="56.707" transform="translate(0 0)" fill="none"/>
    </clipPath>
  </defs>
  <g id="그룹_35" data-name="그룹 35" transform="translate(0 0)">
    <g id="그룹_34" data-name="그룹 34" clip-path="url(#clip-path)">
      <path id="패스_93" data-name="패스 93" d="M58.707,24a24,24,0,1,1-24-24,24,24,0,0,1,24,24" fill="#259561"/>
      <path id="패스_94" data-name="패스 94" d="M27.07,50l-6.547-7.96,5.842-4.047,2.824,9.888Z" fill="#9df4ef"/>
      <path id="패스_95" data-name="패스 95" d="M27.07,50l-6.547-7.96,5.842-4.047,2.824,9.888Z" fill="none" stroke="#383a3a" stroke-miterlimit="10" stroke-width="2"/>
      <path id="패스_96" data-name="패스 96" d="M8.707,31.636,16.68,38.2l4.035-5.853-9.889-2.825Z" fill="#9df4ef"/>
      <path id="패스_97" data-name="패스 97" d="M8.707,31.636,16.68,38.2l4.035-5.853-9.889-2.825Z" fill="none" stroke="#383a3a" stroke-miterlimit="10" stroke-width="2"/>
      <path id="패스_98" data-name="패스 98" d="M56.029,2.678c-1.562-1.561-5.5-.146-7.064,1.413L20.714,32.343l-5.65,8.475a2.091,2.091,0,0,0,0,2.825,2.115,2.115,0,0,0,2.825,0l8.477-5.65L54.616,9.74c1.559-1.558,2.973-5.5,1.413-7.062" fill="#fff"/>
      <path id="패스_99" data-name="패스 99" d="M56.029,2.678c-1.562-1.561-5.5-.146-7.064,1.413L20.714,32.343l-5.65,8.475a2.091,2.091,0,0,0,0,2.825,2.115,2.115,0,0,0,2.825,0l8.477-5.65L54.616,9.74C56.175,8.182,57.589,4.239,56.029,2.678Z" fill="none" stroke="#383a3a" stroke-miterlimit="10" stroke-width="2"/>
      <path id="패스_100" data-name="패스 100" d="M48.429,48.755,41.246,37.237l-7.063-7.062,9.134-9.133,7.8,27.517Z" fill="#9df4ef"/>
      <path id="패스_101" data-name="패스 101" d="M48.429,48.755,41.246,37.237l-7.063-7.062,9.134-9.133,7.8,27.517Z" fill="none" stroke="#383a3a" stroke-miterlimit="10" stroke-width="2"/>
      <path id="패스_102" data-name="패스 102" d="M27.07,50l-6.547-7.96,5.842-4.047,2.824,9.888Z" fill="#fff"/>
      <path id="패스_103" data-name="패스 103" d="M27.07,50l-6.547-7.96,5.842-4.047,2.824,9.888Z" fill="none" stroke="#383a3a" stroke-miterlimit="10" stroke-width="2"/>
      <path id="패스_104" data-name="패스 104" d="M8.707,31.636,16.68,38.2l4.035-5.853-9.889-2.825Z" fill="#fff"/>
      <path id="패스_105" data-name="패스 105" d="M8.707,31.636,16.68,38.2l4.035-5.853-9.889-2.825Z" fill="none" stroke="#383a3a" stroke-miterlimit="10" stroke-width="2"/>
      <path id="패스_106" data-name="패스 106" d="M56.029,2.678c-1.562-1.561-5.5-.146-7.064,1.413L20.714,32.343l-5.65,8.475a2.091,2.091,0,0,0,0,2.825,2.115,2.115,0,0,0,2.825,0l8.477-5.65L54.616,9.74c1.559-1.558,2.973-5.5,1.413-7.062" fill="#fff"/>
      <path id="패스_107" data-name="패스 107" d="M56.029,2.678c-1.562-1.561-5.5-.146-7.064,1.413L20.714,32.343l-5.65,8.475a2.091,2.091,0,0,0,0,2.825,2.115,2.115,0,0,0,2.825,0l8.477-5.65L54.616,9.74C56.175,8.182,57.589,4.239,56.029,2.678Z" fill="none" stroke="#383a3a" stroke-miterlimit="10" stroke-width="2"/>
      <path id="패스_108" data-name="패스 108" d="M9.951,10.279l11.518,7.182,7.064,7.063,9.132-9.134-27.518-7.8Z" fill="#9df4ef"/>
      <path id="패스_109" data-name="패스 109" d="M9.951,10.279l11.518,7.182,7.064,7.063,9.132-9.134-27.518-7.8Z" fill="none" stroke="#383a3a" stroke-miterlimit="10" stroke-width="2"/>
      <line id="선_81" data-name="선 81" y1="12" x2="12" transform="translate(0.707 38)" fill="none" stroke="#383a3a" stroke-miterlimit="10" stroke-width="2"/>
      <line id="선_82" data-name="선 82" y1="12" x2="12" transform="translate(29.707 44)" fill="none" stroke="#383a3a" stroke-miterlimit="10" stroke-width="2"/>
      <line id="선_83" data-name="선 83" y1="12" x2="12" transform="translate(2.707 16)" fill="none" stroke="#383a3a" stroke-miterlimit="10" stroke-width="2"/>
      <line id="선_84" data-name="선 84" y1="8" x2="8" transform="translate(9.707 18)" fill="none" stroke="#383a3a" stroke-miterlimit="10" stroke-width="2"/>
      <line id="선_85" data-name="선 85" y1="8" x2="8" transform="translate(11.707 47)" fill="none" stroke="#383a3a" stroke-miterlimit="10" stroke-width="2"/>
    </g>
  </g>
</svg>
