<svg xmlns="http://www.w3.org/2000/svg" xmlns:xlink="http://www.w3.org/1999/xlink" width="62" height="55" viewBox="0 0 62 55">
  <defs>
    <clipPath id="clip-path">
      <rect id="사각형_59" data-name="사각형 59" width="62" height="55" fill="none"/>
    </clipPath>
  </defs>
  <g id="그룹_26" data-name="그룹 26" clip-path="url(#clip-path)">
    <path id="패스_66" data-name="패스 66" d="M55,20A20,20,0,1,1,35,0,20,20,0,0,1,55,20" fill="#109966"/>
    <path id="패스_67" data-name="패스 67" d="M24,24H22V21H6v3H4v4H6v9H22V28h2Z" fill="#fff"/>
    <path id="패스_68" data-name="패스 68" d="M24,24H22V21H6v3H4v4H6v9H22V28h2Z" fill="none" stroke="#383a3a" stroke-miterlimit="10" stroke-width="2"/>
    <rect id="사각형_48" data-name="사각형 48" width="2" height="2" transform="translate(9 25)" fill="#383a3a"/>
    <line id="선_70" data-name="선 70" y1="8" transform="translate(9 13)" fill="none" stroke="#383a3a" stroke-miterlimit="10" stroke-width="2"/>
    <line id="선_71" data-name="선 71" y1="4" transform="translate(12 17)" fill="none" stroke="#383a3a" stroke-miterlimit="10" stroke-width="2"/>
    <rect id="사각형_49" data-name="사각형 49" width="14" height="11" transform="translate(15 26)" fill="#fff"/>
    <rect id="사각형_50" data-name="사각형 50" width="14" height="11" transform="translate(15 26)" fill="none" stroke="#383a3a" stroke-miterlimit="10" stroke-width="2"/>
    <rect id="사각형_51" data-name="사각형 51" width="14" height="11" transform="translate(29 26)" fill="#fff"/>
    <rect id="사각형_52" data-name="사각형 52" width="14" height="11" transform="translate(29 26)" fill="none" stroke="#383a3a" stroke-miterlimit="10" stroke-width="2"/>
    <rect id="사각형_53" data-name="사각형 53" width="14" height="11" transform="translate(22 15)" fill="#fff"/>
    <rect id="사각형_54" data-name="사각형 54" width="14" height="11" transform="translate(22 15)" fill="none" stroke="#383a3a" stroke-miterlimit="10" stroke-width="2"/>
    <rect id="사각형_55" data-name="사각형 55" width="14" height="11" transform="translate(36 15)" fill="#fff"/>
    <rect id="사각형_56" data-name="사각형 56" width="14" height="11" transform="translate(36 15)" fill="none" stroke="#383a3a" stroke-miterlimit="10" stroke-width="2"/>
    <rect id="사각형_57" data-name="사각형 57" width="14" height="11" transform="translate(43 26)" fill="#fff"/>
    <rect id="사각형_58" data-name="사각형 58" width="14" height="11" transform="translate(43 26)" fill="none" stroke="#383a3a" stroke-miterlimit="10" stroke-width="2"/>
    <path id="패스_69" data-name="패스 69" d="M36,31l-4,6H3V47.705A3.5,3.5,0,0,1,5.206,47c2.6,0,2.6,2,5.205,2s2.6-2,5.2-2,2.6,2,5.2,2,2.6-2,5.2-2,2.6,2,5.2,2,2.6-2,5.2-2,2.6,2,5.2,2,2.6-2,5.195-2a3.483,3.483,0,0,1,2.178.689c3.649-4.743,5.218-5.2,7.684-7.189C61,37,61,31,61,31Z" fill="#fbfbfb"/>
    <path id="패스_70" data-name="패스 70" d="M36,31l-4,6H3V47.705A3.5,3.5,0,0,1,5.206,47c2.6,0,2.6,2,5.205,2s2.6-2,5.2-2,2.6,2,5.2,2,2.6-2,5.2-2,2.6,2,5.2,2,2.6-2,5.2-2,2.6,2,5.2,2,2.6-2,5.195-2a3.483,3.483,0,0,1,2.178.689c3.649-4.743,5.218-5.2,7.684-7.189C61,37,61,31,61,31Z" fill="none" stroke="#383a3a" stroke-miterlimit="10" stroke-width="2"/>
    <line id="선_72" data-name="선 72" x2="6" transform="translate(38 35)" fill="none" stroke="#383a3a" stroke-miterlimit="10" stroke-width="2"/>
    <path id="패스_71" data-name="패스 71" d="M52,49c-2.6,0-2.6-2-5.195-2s-2.6,2-5.195,2-2.6-2-5.2-2-2.6,2-5.2,2-2.6-2-5.2-2-2.6,2-5.2,2-2.6-2-5.2-2-2.6,2-5.2,2-2.6-2-5.205-2S2.6,49,0,49" fill="none" stroke="#383a3a" stroke-miterlimit="10" stroke-width="2"/>
    <path id="패스_72" data-name="패스 72" d="M62,54c-2.6,0-2.6-2-5.195-2s-2.6,2-5.195,2-2.6-2-5.2-2-2.6,2-5.2,2-2.6-2-5.2-2-2.6,2-5.2,2-2.6-2-5.2-2-2.6,2-5.2,2-2.6-2-5.2-2S12.6,54,10,54" fill="none" stroke="#383a3a" stroke-miterlimit="10" stroke-width="2"/>
  </g>
</svg>
