<svg xmlns="http://www.w3.org/2000/svg" xmlns:xlink="http://www.w3.org/1999/xlink" width="60" height="52.422" viewBox="0 0 60 52.422">
  <defs>
    <clipPath id="clip-path">
      <rect id="사각형_74" data-name="사각형 74" width="60" height="52.422" transform="translate(0 0)" fill="none"/>
    </clipPath>
  </defs>
  <g id="그룹_36" data-name="그룹 36" transform="translate(0 0)" clip-path="url(#clip-path)">
    <path id="패스_110" data-name="패스 110" d="M55,27A17,17,0,1,1,38,10,17,17,0,0,1,55,27" fill="#259561"/>
    <path id="패스_111" data-name="패스 111" d="M42.406,47.536A21.027,21.027,0,0,1,23.308,42" fill="none" stroke="#259561" stroke-miterlimit="10" stroke-width="2"/>
    <path id="패스_112" data-name="패스 112" d="M51.96,11.313a21,21,0,0,1,4.283,26.093" fill="none" stroke="#259561" stroke-miterlimit="10" stroke-width="2"/>
    <rect id="사각형_70" data-name="사각형 70" width="46" height="34" transform="translate(1 1)" fill="#fff"/>
    <rect id="사각형_71" data-name="사각형 71" width="46" height="34" transform="translate(1 1)" fill="none" stroke="#383a3a" stroke-miterlimit="10" stroke-width="2"/>
    <rect id="사각형_72" data-name="사각형 72" width="12" height="6" transform="translate(18 1)" fill="#9df4ef"/>
    <rect id="사각형_73" data-name="사각형 73" width="12" height="6" transform="translate(18 1)" fill="none" stroke="#383a3a" stroke-miterlimit="10" stroke-width="2"/>
    <line id="선_86" data-name="선 86" x2="12" transform="translate(4 31)" fill="none" stroke="#383a3a" stroke-miterlimit="10" stroke-width="2"/>
    <path id="패스_113" data-name="패스 113" d="M58,46.918,53.226,51l-8.012-9.73,4.774-4.082Z" fill="#fcfcfc"/>
    <path id="패스_114" data-name="패스 114" d="M58,46.918,53.226,51l-8.012-9.73,4.774-4.082Z" fill="none" stroke="#383a3a" stroke-miterlimit="10" stroke-width="2"/>
    <path id="패스_115" data-name="패스 115" d="M49.188,37.865l-3.183,2.722L42,35.723,45.182,33Z" fill="#fff"/>
    <path id="패스_116" data-name="패스 116" d="M49.188,37.865l-3.183,2.722L42,35.723,45.182,33Z" fill="none" stroke="#383a3a" stroke-miterlimit="10" stroke-width="2"/>
    <path id="패스_117" data-name="패스 117" d="M50,27A12,12,0,1,1,38,15,12,12,0,0,1,50,27" fill="#fff"/>
    <circle id="타원_14" data-name="타원 14" cx="12" cy="12" r="12" transform="translate(26 15)" fill="none" stroke="#383a3a" stroke-miterlimit="10" stroke-width="2"/>
    <line id="선_87" data-name="선 87" y2="8" transform="translate(33 23)" fill="none" stroke="#383a3a" stroke-miterlimit="10" stroke-width="2"/>
    <line id="선_88" data-name="선 88" y2="8" transform="translate(40 23)" fill="none" stroke="#383a3a" stroke-miterlimit="10" stroke-width="2"/>
    <line id="선_89" data-name="선 89" y2="8" transform="translate(37 23)" fill="none" stroke="#383a3a" stroke-miterlimit="10" stroke-width="2"/>
    <line id="선_90" data-name="선 90" y2="8" transform="translate(43 23)" fill="none" stroke="#383a3a" stroke-miterlimit="10" stroke-width="2"/>
  </g>
</svg>
