<svg xmlns="http://www.w3.org/2000/svg" width="80" height="63.995" viewBox="0 0 80 63.995">
  <path id="Icon_awesome-hands-helping" data-name="Icon awesome-hands-helping" d="M61,24H42v7a9,9,0,0,1-18,0V15.8l-8.112,4.875A7.983,7.983,0,0,0,12,27.524v5.912L2,39.211A3.99,3.99,0,0,0,.539,44.674L10.539,62A4,4,0,0,0,16,63.461L28.926,56H46a8.007,8.007,0,0,0,8-8h2a4,4,0,0,0,4-4V36h1a2.993,2.993,0,0,0,3-3V27A2.993,2.993,0,0,0,61,24Zm18.462-4.675L69.464,2A4,4,0,0,0,64,.536L51.076,8H38.3a8.06,8.06,0,0,0-4.237,1.212l-4.187,2.612A3.973,3.973,0,0,0,28,15.211V31a5,5,0,1,0,10,0V20H61a7,7,0,0,1,7,7v3.562l10-5.775a4,4,0,0,0,1.462-5.462Z" transform="translate(0.002 -0.001)" fill="#cfcfcf"/>
</svg>
