<svg xmlns="http://www.w3.org/2000/svg" width="85.408" height="85.408" viewBox="0 0 85.408 85.408">
  <path id="Icon_metro-earth" data-name="Icon metro-earth" d="M45.275,1.928a42.7,42.7,0,1,0,42.7,42.7,42.7,42.7,0,0,0-42.7-42.7Zm0,80.071a37.241,37.241,0,0,1-14.782-3.04L49.939,57.082a2.669,2.669,0,0,0,.674-1.773V47.3a2.669,2.669,0,0,0-2.669-2.669c-9.424,0-19.367-9.8-19.465-9.894a2.669,2.669,0,0,0-1.887-.782H15.916a2.669,2.669,0,0,0-2.669,2.669V52.639a2.669,2.669,0,0,0,1.476,2.387l9.2,4.6V75.3a37.389,37.389,0,0,1-12.416-46.68h9.747a2.669,2.669,0,0,0,1.887-.782L33.817,17.16a2.669,2.669,0,0,0,.782-1.887V8.816a37.471,37.471,0,0,1,27.047,2.22c-.346.292-.682.6-1,.92A16.016,16.016,0,0,0,71.954,39.3q.4,0,.794-.02c1.152,4.321,3.232,15.568-.7,31.055a2.662,2.662,0,0,0-.07.436A37.25,37.25,0,0,1,45.275,82Z" transform="translate(-2.571 -1.928)" fill="#cfcfcf"/>
</svg>
