<svg xmlns="http://www.w3.org/2000/svg" width="19.231" height="19.231" viewBox="0 0 19.231 19.231">
  <path id="Icon_metro-earth" data-name="Icon metro-earth" d="M12.186,1.928A9.615,9.615,0,1,0,21.8,11.543a9.615,9.615,0,0,0-9.615-9.615Zm0,18.029a8.385,8.385,0,0,1-3.328-.685l4.379-4.926a.6.6,0,0,0,.152-.4v-1.8a.6.6,0,0,0-.6-.6c-2.122,0-4.361-2.206-4.383-2.228a.6.6,0,0,0-.425-.176h-2.4a.6.6,0,0,0-.6.6v3.606a.6.6,0,0,0,.332.538L7.378,14.92v3.529a8.419,8.419,0,0,1-2.8-10.511H6.777A.6.6,0,0,0,7.2,7.762l2.4-2.4a.6.6,0,0,0,.176-.425V3.479a8.437,8.437,0,0,1,6.09.5c-.078.066-.154.135-.226.207a3.606,3.606,0,0,0,2.547,6.156q.089,0,.179,0a14.113,14.113,0,0,1-.158,6.992.6.6,0,0,0-.016.1,8.387,8.387,0,0,1-6.012,2.529Z" transform="translate(-2.571 -1.928)" fill="#fcfcfc"/>
</svg>
