<svg xmlns="http://www.w3.org/2000/svg" width="59" height="70.989" viewBox="0 0 59 70.989">
  <g id="그룹_20" data-name="그룹 20" transform="translate(-216.169 -293.157)">
    <circle id="타원_19" data-name="타원 19" cx="29.5" cy="29.5" r="29.5" transform="translate(216.169 305.146)" fill="#fff"/>
    <g id="그룹_17" data-name="그룹 17" transform="translate(217.169 306.665)">
      <path id="패스_16" data-name="패스 16" d="M314.975,417.466a42.1,42.1,0,0,1-.716,7.832,41.15,41.15,0,0,0-10.414-1.15h0v-6.682Z" transform="translate(-275.06 -388.691)" fill="#42af80" stroke="#fff" stroke-miterlimit="1" stroke-width="0.5" fill-rule="evenodd"/>
      <path id="패스_17" data-name="패스 17" d="M344.494,427.575a31.069,31.069,0,0,0,2-10.109h-7.22a42.067,42.067,0,0,1-.716,8.139,53.378,53.378,0,0,1,5.935,1.97Z" transform="translate(-298.246 -388.691)" fill="#42af80" stroke="#fff" stroke-miterlimit="1" stroke-width="0.5" fill-rule="evenodd"/>
      <path id="패스_18" data-name="패스 18" d="M365.229,430.819a28.029,28.029,0,0,0,3.626-13.353h-7.117a31.9,31.9,0,0,1-2.024,10.552,45.832,45.832,0,0,1,5.514,2.8Z" transform="translate(-312.376 -388.691)" fill="#42af80" stroke="#fff" stroke-miterlimit="1" stroke-width="0.5" fill-rule="evenodd"/>
      <path id="패스_19" data-name="패스 19" d="M267.043,417.466a41.18,41.18,0,0,0,.716,7.832,41.058,41.058,0,0,1,10.4-1.15h0v-6.682Z" transform="translate(-250.48 -388.691)" fill="#42af80" stroke="#fff" stroke-miterlimit="1" stroke-width="0.5" fill-rule="evenodd"/>
      <path id="패스_20" data-name="패스 20" d="M243.93,427.575a30.8,30.8,0,0,1-2.012-10.109h7.229a42.006,42.006,0,0,0,.717,8.139,52.537,52.537,0,0,0-5.934,1.97Z" transform="translate(-233.699 -388.691)" fill="#42af80" stroke="#fff" stroke-miterlimit="1" stroke-width="0.5" fill-rule="evenodd"/>
      <path id="패스_21" data-name="패스 21" d="M220.8,430.819a28.036,28.036,0,0,1-3.626-13.353h7.1a31.952,31.952,0,0,0,2.035,10.552,45.871,45.871,0,0,0-5.513,2.8Z" transform="translate(-217.169 -388.691)" fill="#42af80" stroke="#fff" stroke-miterlimit="1" stroke-width="0.5" fill-rule="evenodd"/>
      <path id="패스_22" data-name="패스 22" d="M283.3,339.3a25.7,25.7,0,0,0,5.73.683h0V331.88h0a1.826,1.826,0,0,0-.534.433,49.235,49.235,0,0,0-5.2,6.99Z" transform="translate(-261.341 -331.528)" fill="#42af80" stroke="#fff" stroke-miterlimit="1" stroke-width="0.5" fill-rule="evenodd"/>
      <path id="패스_23" data-name="패스 23" d="M267.043,398.5a42.1,42.1,0,0,1,.716-7.832,41.158,41.158,0,0,0,10.415,1.15h0V398.5Z" transform="translate(-250.48 -370.792)" fill="#42af80" stroke="#fff" stroke-miterlimit="1" stroke-width="0.5" fill-rule="evenodd"/>
      <path id="패스_24" data-name="패스 24" d="M273.261,338.366a46.9,46.9,0,0,1,4.821-6.534,8.615,8.615,0,0,1,1.046-1.013,7.893,7.893,0,0,0-1.626.672,37.407,37.407,0,0,0-7.549,5.737,20.073,20.073,0,0,0,2.9.979c.147.045.284.079.431.114h0l-.023.046Z" transform="translate(-252.424 -330.819)" fill="#42af80" stroke="#fff" stroke-miterlimit="1" stroke-width="0.5" fill-rule="evenodd"/>
      <path id="패스_25" data-name="패스 25" d="M273.261,338.366a46.9,46.9,0,0,1,4.821-6.534,8.615,8.615,0,0,1,1.046-1.013,7.893,7.893,0,0,0-1.626.672,37.407,37.407,0,0,0-7.549,5.737,20.073,20.073,0,0,0,2.9.979c.147.045.284.079.431.114" transform="translate(-252.424 -330.819)" fill="#42af80" stroke="#fff" stroke-miterlimit="1" stroke-width="0.5" fill-rule="evenodd"/>
      <path id="패스_26" data-name="패스 26" d="M269.986,367.253a47.524,47.524,0,0,1,1.467-4.781,31.336,31.336,0,0,1,2.33-5.157,25.336,25.336,0,0,0,6.356.763h0v10.348h0a40.15,40.15,0,0,1-10.153-1.173Z" transform="translate(-252.446 -348.516)" fill="#42af80" stroke="#fff" stroke-miterlimit="1" stroke-width="0.5" fill-rule="evenodd"/>
      <path id="패스_27" data-name="패스 27" d="M249.277,362a53.4,53.4,0,0,0,5.775,1.924c.364-1.468.83-2.925,1.455-4.735a31.767,31.767,0,0,1,2.376-5.18l-.159-.034a21.8,21.8,0,0,1-3.434-1.219,29.869,29.869,0,0,0-4.7,6.512c-.523.955-.933,1.832-1.318,2.731Z" transform="translate(-238.614 -345.47)" fill="#42af80" stroke="#fff" stroke-miterlimit="1" stroke-width="0.5" fill-rule="evenodd"/>
      <path id="패스_28" data-name="패스 28" d="M243.952,383.812a31.075,31.075,0,0,0-2,10.109h7.219a42.011,42.011,0,0,1,.716-8.14,53.17,53.17,0,0,1-5.934-1.969Z" transform="translate(-233.721 -366.213)" fill="#42af80" stroke="#fff" stroke-miterlimit="1" stroke-width="0.5" fill-rule="evenodd"/>
      <path id="패스_29" data-name="패스 29" d="M229.87,353.763a46.116,46.116,0,0,0,5.354,2.687c.375-.876.807-1.764,1.3-2.687a30.8,30.8,0,0,1,4.8-6.637,25.265,25.265,0,0,1-3.092-2.015,27.95,27.95,0,0,0-8.354,8.651Z" transform="translate(-225.652 -340.365)" fill="#42af80" stroke="#fff" stroke-miterlimit="1" stroke-width="0.5" fill-rule="evenodd"/>
      <path id="패스_30" data-name="패스 30" d="M220.8,374.042a28.038,28.038,0,0,0-3.626,13.353h7.116a31.9,31.9,0,0,1,2.023-10.552,45.784,45.784,0,0,1-5.513-2.8Z" transform="translate(-217.169 -359.688)" fill="#42af80" stroke="#fff" stroke-miterlimit="1" stroke-width="0.5" fill-rule="evenodd"/>
      <path id="패스_31" data-name="패스 31" d="M257.9,335.535a27.876,27.876,0,0,1,10.391-3.825,35.525,35.525,0,0,0-7.435,5.624,22.664,22.664,0,0,1-2.956-1.8Z" transform="translate(-244.375 -331.414)" fill="#42af80" stroke="#fff" stroke-miterlimit="1" stroke-width="0.5" fill-rule="evenodd"/>
      <path id="패스_32" data-name="패스 32" d="M309.61,339.3a25.778,25.778,0,0,1-5.73.683h0V331.88h0a1.724,1.724,0,0,1,.523.433,50.23,50.23,0,0,1,5.207,6.99Z" transform="translate(-275.084 -331.528)" fill="#42af80" stroke="#fff" stroke-miterlimit="1" stroke-width="0.5" fill-rule="evenodd"/>
      <path id="패스_33" data-name="패스 33" d="M315,398.5a41.172,41.172,0,0,0-.716-7.832,41.056,41.056,0,0,1-10.4,1.15h0V398.5Z" transform="translate(-275.084 -370.792)" fill="#42af80" stroke="#fff" stroke-miterlimit="1" stroke-width="0.5" fill-rule="evenodd"/>
      <path id="패스_34" data-name="패스 34" d="M312.723,338.366a47.913,47.913,0,0,0-4.832-6.534,9.039,9.039,0,0,0-1.035-1.013,7.944,7.944,0,0,1,1.615.672,37.424,37.424,0,0,1,7.549,5.737,19.939,19.939,0,0,1-2.888.979c-.148.045-.3.079-.444.114h0l.034.046Z" transform="translate(-277.072 -330.819)" fill="#42af80" stroke="#fff" stroke-miterlimit="1" stroke-width="0.5" fill-rule="evenodd"/>
      <path id="패스_35" data-name="패스 35" d="M312.723,338.366a47.913,47.913,0,0,0-4.832-6.534,9.039,9.039,0,0,0-1.035-1.013,7.944,7.944,0,0,1,1.615.672,37.424,37.424,0,0,1,7.549,5.737,19.939,19.939,0,0,1-2.888.979c-.148.045-.3.079-.444.114" transform="translate(-277.072 -330.819)" fill="#42af80" stroke="#fff" stroke-miterlimit="1" stroke-width="0.5" fill-rule="evenodd"/>
      <path id="패스_36" data-name="패스 36" d="M314.021,367.253c-.352-1.469-.83-2.982-1.455-4.781a31.391,31.391,0,0,0-2.342-5.157,25.3,25.3,0,0,1-6.344.763h0v10.348h0a40.112,40.112,0,0,0,10.141-1.173Z" transform="translate(-275.084 -348.516)" fill="#42af80" stroke="#fff" stroke-miterlimit="1" stroke-width="0.5" fill-rule="evenodd"/>
      <path id="패스_37" data-name="패스 37" d="M335.83,362a53.513,53.513,0,0,1-5.776,1.924c-.352-1.468-.83-2.925-1.455-4.735a31.738,31.738,0,0,0-2.365-5.18c.057-.011.1-.023.148-.034a21.531,21.531,0,0,0,3.444-1.219,30.259,30.259,0,0,1,4.7,6.512c.511.955.932,1.832,1.308,2.731Z" transform="translate(-290.014 -345.47)" fill="#42af80" stroke="#fff" stroke-miterlimit="1" stroke-width="0.5" fill-rule="evenodd"/>
      <path id="패스_38" data-name="패스 38" d="M344.494,383.812a30.794,30.794,0,0,1,2.012,10.109h-7.231a42.071,42.071,0,0,0-.716-8.14,52.488,52.488,0,0,0,5.935-1.969Z" transform="translate(-298.246 -366.213)" fill="#42af80" stroke="#fff" stroke-miterlimit="1" stroke-width="0.5" fill-rule="evenodd"/>
      <path id="패스_39" data-name="패스 39" d="M351.537,353.763a45.272,45.272,0,0,1-5.355,2.687c-.364-.876-.807-1.764-1.3-2.687a30.8,30.8,0,0,0-4.786-6.637,27.081,27.081,0,0,0,3.092-2.015,28.041,28.041,0,0,1,8.345,8.651Z" transform="translate(-299.275 -340.365)" fill="#42af80" stroke="#fff" stroke-miterlimit="1" stroke-width="0.5" fill-rule="evenodd"/>
      <path id="패스_40" data-name="패스 40" d="M365.229,374.042a28.031,28.031,0,0,1,3.626,13.353H361.75a31.949,31.949,0,0,0-2.035-10.552,45.745,45.745,0,0,0,5.514-2.8Z" transform="translate(-312.376 -359.688)" fill="#42af80" stroke="#fff" stroke-miterlimit="1" stroke-width="0.5" fill-rule="evenodd"/>
      <path id="패스_41" data-name="패스 41" d="M325.6,335.535a27.881,27.881,0,0,0-10.391-3.825,35.221,35.221,0,0,1,7.435,5.624,21.985,21.985,0,0,0,2.956-1.8Z" transform="translate(-282.652 -331.414)" fill="#42af80" stroke="#fff" stroke-miterlimit="1" stroke-width="0.5" fill-rule="evenodd"/>
    </g>
    <path id="패스_42" data-name="패스 42" d="M252.467,293.157l-25.119,48.026h50.238Z" transform="translate(-6.798)" fill="#518bca" fill-rule="evenodd"/>
    <path id="패스_43" data-name="패스 43" d="M252.467,316.157l-25.119,48.026h50.238Z" transform="translate(-6.798 -15.362)" fill="#0061b0" fill-rule="evenodd"/>
    <g id="그룹_18" data-name="그룹 18" transform="translate(234.35 329.049)">
      <path id="패스_44" data-name="패스 44" d="M274.842,403.572a2.474,2.474,0,0,0-1.963-.992,2.564,2.564,0,0,0-2.59,2.53,2.594,2.594,0,0,0,.719,1.741,2.675,2.675,0,0,0,1.932.84,2.535,2.535,0,0,0,2.186-1.346H272v-1.305h4.877v.162a3.989,3.989,0,0,1-7.973-.041,3.96,3.96,0,0,1,3.976-3.926,3.918,3.918,0,0,1,3.622,2.337Z" transform="translate(-268.903 -401.235)" fill="#fff"/>
      <path id="패스_45" data-name="패스 45" d="M301.2,403.572a2.475,2.475,0,0,0-1.963-.992,2.564,2.564,0,0,0-2.59,2.53,2.594,2.594,0,0,0,.718,1.741,2.675,2.675,0,0,0,1.933.84,2.535,2.535,0,0,0,2.186-1.346h-3.127v-1.305h4.877v.162a3.989,3.989,0,0,1-7.973-.041,3.96,3.96,0,0,1,3.976-3.926,3.919,3.919,0,0,1,3.623,2.337Z" transform="translate(-286.506 -401.235)" fill="#fff"/>
      <path id="패스_46" data-name="패스 46" d="M322.771,401.661h1.386v6.132h4.169v1.346h-5.556Z" transform="translate(-304.882 -401.52)" fill="#fff"/>
    </g>
    <g id="그룹_19" data-name="그룹 19" transform="translate(221.386 343.237)">
      <path id="패스_47" data-name="패스 47" d="M335.806,447.257a53.566,53.566,0,0,0-5.776-1.924c-.364,1.468-.83,2.926-1.455,4.736a31.726,31.726,0,0,1-2.376,5.179c.056.012.1.023.159.034a21.835,21.835,0,0,1,3.434,1.218,29.858,29.858,0,0,0,4.7-6.511c.523-.956.933-1.833,1.319-2.732Z" transform="translate(-294.208 -443.876)" fill="#42af80" stroke="#fff" stroke-miterlimit="1" stroke-width="0.5" fill-rule="evenodd"/>
      <path id="패스_48" data-name="패스 48" d="M351.513,455.151a46.025,46.025,0,0,0-5.355-2.687c-.375.876-.807,1.764-1.3,2.687a30.819,30.819,0,0,1-4.8,6.636,25.333,25.333,0,0,1,3.093,2.015,27.959,27.959,0,0,0,8.356-8.651Z" transform="translate(-303.469 -448.639)" fill="#42af80" stroke="#fff" stroke-miterlimit="1" stroke-width="0.5" fill-rule="evenodd"/>
      <path id="패스_49" data-name="패스 49" d="M249.275,447.257a53.59,53.59,0,0,1,5.775-1.924c.352,1.468.83,2.926,1.455,4.736a31.728,31.728,0,0,0,2.365,5.179c-.056.012-.1.023-.148.034a21.561,21.561,0,0,0-3.444,1.218,30.248,30.248,0,0,1-4.7-6.511c-.511-.956-.932-1.833-1.307-2.732Z" transform="translate(-242.83 -443.876)" fill="#42af80" stroke="#fff" stroke-miterlimit="1" stroke-width="0.5" fill-rule="evenodd"/>
      <path id="패스_50" data-name="패스 50" d="M229.868,455.151a45.171,45.171,0,0,1,5.354-2.687c.364.876.807,1.764,1.3,2.687a30.751,30.751,0,0,0,4.785,6.636,27.214,27.214,0,0,0-3.092,2.015,28.055,28.055,0,0,1-8.344-8.651Z" transform="translate(-229.868 -448.639)" fill="#42af80" stroke="#fff" stroke-miterlimit="1" stroke-width="0.5" fill-rule="evenodd"/>
      <path id="패스_51" data-name="패스 51" d="M309.575,476.112a25.724,25.724,0,0,0-5.731-.683h0v8.105h0a1.813,1.813,0,0,0,.534-.433,49.206,49.206,0,0,0,5.2-6.99Z" transform="translate(-279.277 -463.977)" fill="#42af80" stroke="#fff" stroke-miterlimit="1" stroke-width="0.5" fill-rule="evenodd"/>
      <path id="패스_52" data-name="패스 52" d="M312.69,478.173a46.888,46.888,0,0,1-4.82,6.534,8.609,8.609,0,0,1-1.046,1.013,7.9,7.9,0,0,0,1.626-.671A37.422,37.422,0,0,0,316,479.311a20.039,20.039,0,0,0-2.9-.98c-.148-.045-.285-.08-.432-.113" transform="translate(-281.267 -465.81)" fill="#42af80" stroke="#fff" stroke-miterlimit="1" stroke-width="0.5" fill-rule="evenodd"/>
      <path id="패스_53" data-name="패스 53" d="M325.6,484.872a27.876,27.876,0,0,1-10.391,3.825,35.559,35.559,0,0,0,7.435-5.624,22.659,22.659,0,0,1,2.956,1.8Z" transform="translate(-286.869 -469.083)" fill="#42af80" stroke="#fff" stroke-miterlimit="1" stroke-width="0.5" fill-rule="evenodd"/>
      <path id="패스_54" data-name="패스 54" d="M283.269,476.112a25.792,25.792,0,0,1,5.73-.683h0v8.105h0a1.712,1.712,0,0,1-.523-.433,50.175,50.175,0,0,1-5.207-6.99Z" transform="translate(-265.535 -463.977)" fill="#42af80" stroke="#fff" stroke-miterlimit="1" stroke-width="0.5" fill-rule="evenodd"/>
      <path id="패스_55" data-name="패스 55" d="M273.249,478.173a47.853,47.853,0,0,0,4.832,6.534,9.05,9.05,0,0,0,1.034,1.013,7.932,7.932,0,0,1-1.614-.671,37.447,37.447,0,0,1-7.549-5.737,19.9,19.9,0,0,1,2.888-.98c.149-.045.3-.08.444-.113" transform="translate(-256.64 -465.81)" fill="#42af80" stroke="#fff" stroke-miterlimit="1" stroke-width="0.5" fill-rule="evenodd"/>
      <path id="패스_56" data-name="패스 56" d="M257.9,484.872a27.873,27.873,0,0,0,10.391,3.825,35.25,35.25,0,0,1-7.435-5.624,21.913,21.913,0,0,0-2.956,1.8Z" transform="translate(-248.593 -469.083)" fill="#42af80" stroke="#fff" stroke-miterlimit="1" stroke-width="0.5" fill-rule="evenodd"/>
      <path id="패스_57" data-name="패스 57" d="M314,442.118a47.576,47.576,0,0,1-1.467,4.781,31.351,31.351,0,0,1-2.331,5.156,25.349,25.349,0,0,0-6.356-.762h0V440.946h0A40.178,40.178,0,0,1,314,442.118Z" transform="translate(-279.277 -440.946)" fill="#42af80" stroke="#fff" stroke-miterlimit="1" stroke-width="0.5" fill-rule="evenodd"/>
      <path id="패스_58" data-name="패스 58" d="M269.986,442.118c.352,1.469.83,2.983,1.455,4.781a31.4,31.4,0,0,0,2.342,5.156,25.32,25.32,0,0,1,6.344-.762h0V440.946h0a40.147,40.147,0,0,0-10.141,1.172Z" transform="translate(-256.663 -440.946)" fill="#42af80" stroke="#fff" stroke-miterlimit="1" stroke-width="0.5" fill-rule="evenodd"/>
    </g>
  </g>
</svg>
