<svg xmlns="http://www.w3.org/2000/svg" width="19.24" height="26.199" viewBox="0 0 19.24 26.199">
  <g id="벤쿠버" transform="translate(0)">
    <path id="Icon_metro-location" data-name="Icon metro-location" d="M17.975,1.928c-5.313,0-9.62,3.666-9.62,8.187,0,8.187,9.62,18.012,9.62,18.012s9.62-9.825,9.62-18.012c0-4.522-4.307-8.187-9.62-8.187Zm0,13.2c-3.254,0-5.892-2.245-5.892-5.015S14.721,5.1,17.975,5.1s5.892,2.245,5.892,5.015S21.229,15.13,17.975,15.13Zm-3.728-5.015a3.484,3.484,0,0,1,3.728-3.173A3.484,3.484,0,0,1,21.7,10.115a3.484,3.484,0,0,1-3.728,3.173A3.484,3.484,0,0,1,14.247,10.115Z" transform="translate(-8.355 -1.928)" fill="#e0fe11"/>
  </g>
</svg>
