<svg xmlns="http://www.w3.org/2000/svg" width="33.333" height="40" viewBox="0 0 33.333 40">
  <path id="Icon_material-contacts" data-name="Icon material-contacts" d="M33,0H6.333V3.333H33ZM6.333,40H33V36.667H6.333ZM33,6.667H6.333A3.343,3.343,0,0,0,3,10V30a3.343,3.343,0,0,0,3.333,3.333H33A3.343,3.343,0,0,0,36.333,30V10A3.343,3.343,0,0,0,33,6.667ZM19.667,11.25A3.75,3.75,0,1,1,15.917,15,3.756,3.756,0,0,1,19.667,11.25ZM28,28.333H11.333v-2.5c0-2.783,5.55-4.167,8.333-4.167S28,23.05,28,25.833Z" transform="translate(-3)" fill="#fcfcfc"/>
  <circle id="타원_7" data-name="타원 7" cx="4.5" cy="4.5" r="4.5" transform="translate(12 11)" fill="#109966"/>
</svg>
