<svg xmlns="http://www.w3.org/2000/svg" width="35" height="40" viewBox="0 0 35 40">
  <path id="Icon_awesome-calculator" data-name="Icon awesome-calculator" d="M31.25,0H3.75A3.845,3.845,0,0,0,0,3.75v32.5A3.845,3.845,0,0,0,3.75,40h27.5A3.845,3.845,0,0,0,35,36.25V3.75A3.845,3.845,0,0,0,31.25,0ZM10,34a1.075,1.075,0,0,1-1,1H6a1.075,1.075,0,0,1-1-1V31a1.075,1.075,0,0,1,1-1H9a1.075,1.075,0,0,1,1,1Zm0-10a1.075,1.075,0,0,1-1,1H6a1.075,1.075,0,0,1-1-1V21a1.075,1.075,0,0,1,1-1H9a1.075,1.075,0,0,1,1,1ZM20,34a1.075,1.075,0,0,1-1,1H16a1.075,1.075,0,0,1-1-1V31a1.075,1.075,0,0,1,1-1h3a1.075,1.075,0,0,1,1,1Zm0-10a1.075,1.075,0,0,1-1,1H16a1.075,1.075,0,0,1-1-1V21a1.075,1.075,0,0,1,1-1h3a1.075,1.075,0,0,1,1,1ZM30,34a1.075,1.075,0,0,1-1,1H26a1.075,1.075,0,0,1-1-1V21a1.075,1.075,0,0,1,1-1h3a1.075,1.075,0,0,1,1,1V34Zm0-20a1.075,1.075,0,0,1-1,1H6a1.075,1.075,0,0,1-1-1V6A1.075,1.075,0,0,1,6,5H29a1.075,1.075,0,0,1,1,1Z" fill="#fff"/>
  <rect id="사각형_31" data-name="사각형 31" width="28" height="12" rx="3" transform="translate(3.5 4)" fill="#259561"/>
</svg>
