<svg xmlns="http://www.w3.org/2000/svg" width="12.171" height="16.229" viewBox="0 0 12.171 16.229">
  <path id="Icon_ionic-md-bulb" data-name="Icon ionic-md-bulb" d="M11.256,19.883a.848.848,0,0,0,.845.845H15.82a.848.848,0,0,0,.845-.845v-.761h-5.41ZM13.961,4.5a5.879,5.879,0,0,0-6.086,5.663,5.589,5.589,0,0,0,2.595,4.674v1.834a.845.845,0,0,0,.871.811h5.236a.842.842,0,0,0,.871-.811V14.837a5.583,5.583,0,0,0,2.6-4.674A5.879,5.879,0,0,0,13.961,4.5Z" transform="translate(-7.875 -4.5)" fill="#fcfcfc"/>
</svg>
