<svg xmlns="http://www.w3.org/2000/svg" width="19.319" height="15.455" viewBox="0 0 19.319 15.455">
  <path id="Icon_awesome-ship" data-name="Icon awesome-ship" d="M14.991,11.248,17.1,9.135a.966.966,0,0,0-.387-1.6l-1.262-.405V2.9a.966.966,0,0,0-.966-.966H12.557V.724A.724.724,0,0,0,11.833,0H7.486a.724.724,0,0,0-.724.724V1.932H4.83a.966.966,0,0,0-.966.966V7.127L2.6,7.532a.966.966,0,0,0-.387,1.6l2.113,2.113a3.647,3.647,0,0,1-3.6,2.275A.724.724,0,0,0,0,14.248v.483a.724.724,0,0,0,.724.724,5.567,5.567,0,0,0,4.324-1.793,2.9,2.9,0,0,0,2.679,1.793h3.864a2.9,2.9,0,0,0,2.679-1.793,5.567,5.567,0,0,0,4.324,1.793.724.724,0,0,0,.724-.724v-.483a.724.724,0,0,0-.724-.724A3.648,3.648,0,0,1,14.991,11.248ZM5.8,3.864h7.728V6.506L9.955,5.359a.966.966,0,0,0-.591,0L5.8,6.506Z" fill="#fcfcfc"/>
</svg>
