<svg xmlns="http://www.w3.org/2000/svg" width="20.977" height="20.981" viewBox="0 0 20.977 20.981">
  <path id="Icon_awesome-globe" data-name="Icon awesome-globe" d="M14.234,6.992c-.613-3.777-2.06-6.43-3.744-6.43S7.36,3.215,6.747,6.992Zm-7.8,4.061a26.514,26.514,0,0,0,.14,2.707h7.838a26.514,26.514,0,0,0,.14-2.707,26.514,26.514,0,0,0-.14-2.707H6.569A26.514,26.514,0,0,0,6.43,11.053ZM20.165,6.992A10.513,10.513,0,0,0,13.481,1,14.277,14.277,0,0,1,15.6,6.992ZM7.5,1A10.506,10.506,0,0,0,.816,6.992H5.385A14.219,14.219,0,0,1,7.5,1ZM20.617,8.346H15.766c.089.888.14,1.8.14,2.707s-.051,1.819-.14,2.707h4.848a10.4,10.4,0,0,0,.364-2.707A10.582,10.582,0,0,0,20.617,8.346ZM5.076,11.053c0-.909.051-1.819.14-2.707H.364a10.255,10.255,0,0,0,0,5.415H5.211C5.127,12.872,5.076,11.963,5.076,11.053Zm1.671,4.061c.613,3.777,2.06,6.43,3.744,6.43s3.13-2.652,3.744-6.43Zm6.739,5.99a10.523,10.523,0,0,0,6.684-5.99H15.6a14.277,14.277,0,0,1-2.115,5.99ZM.816,15.114A10.513,10.513,0,0,0,7.5,21.1a14.277,14.277,0,0,1-2.115-5.99H.816Z" transform="translate(0 -0.563)" fill="#fcfcfc"/>
</svg>
